<svg width="31" height="31" viewBox="0 0 31 31" fill="none" xmlns="http://www.w3.org/2000/svg">
<g filter="url(#filter0_diii_90_893)">
<path d="M21.8435 2.02796C22.2011 1.67032 22.6257 1.38663 23.093 1.19307C23.5603 0.999522 24.0611 0.899902 24.5669 0.899902C25.0726 0.899902 25.5735 0.999522 26.0407 1.19307C26.508 1.38663 26.9326 1.67032 27.2902 2.02796C27.6479 2.38559 27.9316 2.81017 28.1251 3.27745C28.3187 3.74472 28.4183 4.24554 28.4183 4.75132C28.4183 5.25709 28.3187 5.75792 28.1251 6.22519C27.9316 6.69247 27.6479 7.11705 27.2902 7.47468L9.07653 25.6884C8.96578 25.7991 8.82804 25.8791 8.67694 25.9203L2.93778 27.4855C2.26593 27.6687 1.64945 27.0522 1.83268 26.3804L3.39791 20.6412C3.43912 20.4901 3.51905 20.3524 3.6298 20.2417L21.8435 2.02796Z" fill="#AEAEB7"/>
</g>
<defs>
<filter id="filter0_diii_90_893" x="-1.21593e-05" y="-9.76324e-05" width="30.2183" height="30.2184" filterUnits="userSpaceOnUse" color-interpolation-filters="sRGB">
<feFlood flood-opacity="0" result="BackgroundImageFix"/>
<feColorMatrix in="SourceAlpha" type="matrix" values="0 0 0 0 0 0 0 0 0 0 0 0 0 0 0 0 0 0 127 0" result="hardAlpha"/>
<feOffset dy="0.9"/>
<feGaussianBlur stdDeviation="0.9"/>
<feColorMatrix type="matrix" values="0 0 0 0 0 0 0 0 0 0 0 0 0 0 0 0 0 0 0.15 0"/>
<feBlend mode="normal" in2="BackgroundImageFix" result="effect1_dropShadow_90_893"/>
<feBlend mode="normal" in="SourceGraphic" in2="effect1_dropShadow_90_893" result="shape"/>
<feColorMatrix in="SourceAlpha" type="matrix" values="0 0 0 0 0 0 0 0 0 0 0 0 0 0 0 0 0 0 127 0" result="hardAlpha"/>
<feOffset dy="0.9"/>
<feGaussianBlur stdDeviation="0.45"/>
<feComposite in2="hardAlpha" operator="arithmetic" k2="-1" k3="1"/>
<feColorMatrix type="matrix" values="0 0 0 0 1 0 0 0 0 1 0 0 0 0 1 0 0 0 0.65 0"/>
<feBlend mode="normal" in2="shape" result="effect2_innerShadow_90_893"/>
<feColorMatrix in="SourceAlpha" type="matrix" values="0 0 0 0 0 0 0 0 0 0 0 0 0 0 0 0 0 0 127 0" result="hardAlpha"/>
<feOffset dy="-0.9"/>
<feGaussianBlur stdDeviation="0.45"/>
<feComposite in2="hardAlpha" operator="arithmetic" k2="-1" k3="1"/>
<feColorMatrix type="matrix" values="0 0 0 0 0 0 0 0 0 0 0 0 0 0 0 0 0 0 0.42 0"/>
<feBlend mode="normal" in2="effect2_innerShadow_90_893" result="effect3_innerShadow_90_893"/>
<feColorMatrix in="SourceAlpha" type="matrix" values="0 0 0 0 0 0 0 0 0 0 0 0 0 0 0 0 0 0 127 0" result="hardAlpha"/>
<feOffset dy="0.45"/>
<feGaussianBlur stdDeviation="0.225"/>
<feComposite in2="hardAlpha" operator="arithmetic" k2="-1" k3="1"/>
<feColorMatrix type="matrix" values="0 0 0 0 1 0 0 0 0 1 0 0 0 0 1 0 0 0 0.45 0"/>
<feBlend mode="normal" in2="effect3_innerShadow_90_893" result="effect4_innerShadow_90_893"/>
</filter>
</defs>
</svg>
