<svg width="36" height="40" viewBox="0 0 36 40" fill="none" xmlns="http://www.w3.org/2000/svg">
<g filter="url(#filter0_diii_565_27662)">
<path fill-rule="evenodd" clip-rule="evenodd" d="M14.8522 27.2545C15.5515 26.8488 16.4474 27.0869 16.8531 27.7863C16.9389 27.9342 17.062 28.0569 17.2102 28.1423C17.3583 28.2276 17.5263 28.2725 17.6973 28.2725C17.8682 28.2725 18.0362 28.2276 18.1844 28.1423C18.3325 28.0569 18.4557 27.9342 18.5415 27.7863C18.9472 27.0869 19.843 26.8488 20.5424 27.2545C21.2417 27.6602 21.4798 28.556 21.0741 29.2554C20.7309 29.847 20.2384 30.338 19.6457 30.6794C19.0531 31.0207 18.3812 31.2004 17.6973 31.2004C17.0134 31.2004 16.3414 31.0207 15.7488 30.6794C15.1562 30.338 14.6636 29.847 14.3204 29.2554C13.9147 28.556 14.1528 27.6602 14.8522 27.2545Z" fill="#AEAEB7"/>
</g>
<g filter="url(#filter1_diii_565_27662)">
<path d="M17.7786 2.6709C19.4442 2.70112 21.0707 3.18295 22.4836 4.06543C23.213 4.52101 23.871 5.07506 24.4417 5.70801C25.0263 6.0668 25.67 6.62395 26.0208 7.11328L26.4827 8.56445C26.5594 13.021 27.402 15.8132 28.1682 17.4521C28.5719 18.3156 28.9625 18.8772 29.2288 19.2051C29.3622 19.3695 29.4663 19.4765 29.5256 19.5342C29.5542 19.5619 29.5727 19.5782 29.5793 19.584C30.1143 20.0157 30.3504 22.045 30.1614 22.7734C29.9699 23.5112 29.4227 23.6406 28.762 23.6406H6.80298C6.14218 23.6405 5.59507 22.2682 5.40356 21.5303C5.21471 20.8019 5.45068 20.0154 5.9856 19.584C5.99226 19.5782 6.01157 19.5621 6.04028 19.5342C6.09964 19.4764 6.20289 19.3692 6.33618 19.2051C6.60241 18.8772 6.99303 18.3156 7.39673 17.4521C8.14437 15.8528 8.96487 13.1553 9.07544 8.88477L9.38989 8.25977C9.36542 7.96669 9.42537 7.6629 9.57935 7.38672C10.3906 5.93174 11.5826 4.72424 13.0266 3.89355C14.4705 3.06304 16.1131 2.64073 17.7786 2.6709ZM17.7229 5.73535C16.6126 5.71527 15.5175 5.99711 14.5549 6.55078C13.5922 7.10459 12.7979 7.90984 12.2571 8.87988C12.2025 8.97776 12.1378 9.06667 12.0667 9.14746C11.9273 13.8228 11.0152 17.0194 10.0295 19.1279C9.99826 19.1957 10.0476 19.2733 10.1223 19.2734H25.4426C25.5174 19.2733 25.5667 19.1957 25.5354 19.1279C24.5819 17.0882 23.696 14.0304 23.5129 9.60059C23.3337 9.46536 23.1806 9.28949 23.0715 9.07617C22.5662 8.08719 21.8016 7.25338 20.8596 6.66504C19.9177 6.0768 18.8332 5.75551 17.7229 5.73535Z" fill="#AEAEB7"/>
</g>
<defs>
<filter id="filter0_diii_565_27662" x="8.78346" y="24.3871" width="17.8276" height="14.822" filterUnits="userSpaceOnUse" color-interpolation-filters="sRGB">
<feFlood flood-opacity="0" result="BackgroundImageFix"/>
<feColorMatrix in="SourceAlpha" type="matrix" values="0 0 0 0 0 0 0 0 0 0 0 0 0 0 0 0 0 0 127 0" result="hardAlpha"/>
<feOffset dy="2.66955"/>
<feGaussianBlur stdDeviation="2.66955"/>
<feColorMatrix type="matrix" values="0 0 0 0 0 0 0 0 0 0 0 0 0 0 0 0 0 0 0.15 0"/>
<feBlend mode="normal" in2="BackgroundImageFix" result="effect1_dropShadow_565_27662"/>
<feBlend mode="normal" in="SourceGraphic" in2="effect1_dropShadow_565_27662" result="shape"/>
<feColorMatrix in="SourceAlpha" type="matrix" values="0 0 0 0 0 0 0 0 0 0 0 0 0 0 0 0 0 0 127 0" result="hardAlpha"/>
<feOffset dy="2.66955"/>
<feGaussianBlur stdDeviation="1.33477"/>
<feComposite in2="hardAlpha" operator="arithmetic" k2="-1" k3="1"/>
<feColorMatrix type="matrix" values="0 0 0 0 1 0 0 0 0 1 0 0 0 0 1 0 0 0 0.65 0"/>
<feBlend mode="normal" in2="shape" result="effect2_innerShadow_565_27662"/>
<feColorMatrix in="SourceAlpha" type="matrix" values="0 0 0 0 0 0 0 0 0 0 0 0 0 0 0 0 0 0 127 0" result="hardAlpha"/>
<feOffset dy="-2.66955"/>
<feGaussianBlur stdDeviation="1.33477"/>
<feComposite in2="hardAlpha" operator="arithmetic" k2="-1" k3="1"/>
<feColorMatrix type="matrix" values="0 0 0 0 0 0 0 0 0 0 0 0 0 0 0 0 0 0 0.42 0"/>
<feBlend mode="normal" in2="effect2_innerShadow_565_27662" result="effect3_innerShadow_565_27662"/>
<feColorMatrix in="SourceAlpha" type="matrix" values="0 0 0 0 0 0 0 0 0 0 0 0 0 0 0 0 0 0 127 0" result="hardAlpha"/>
<feOffset dy="1.33477"/>
<feGaussianBlur stdDeviation="0.667387"/>
<feComposite in2="hardAlpha" operator="arithmetic" k2="-1" k3="1"/>
<feColorMatrix type="matrix" values="0 0 0 0 1 0 0 0 0 1 0 0 0 0 1 0 0 0 0.45 0"/>
<feBlend mode="normal" in2="effect3_innerShadow_565_27662" result="effect4_innerShadow_565_27662"/>
</filter>
<filter id="filter1_diii_565_27662" x="1.57356e-05" y="-0.000114202" width="35.5649" height="31.6494" filterUnits="userSpaceOnUse" color-interpolation-filters="sRGB">
<feFlood flood-opacity="0" result="BackgroundImageFix"/>
<feColorMatrix in="SourceAlpha" type="matrix" values="0 0 0 0 0 0 0 0 0 0 0 0 0 0 0 0 0 0 127 0" result="hardAlpha"/>
<feOffset dy="2.66955"/>
<feGaussianBlur stdDeviation="2.66955"/>
<feColorMatrix type="matrix" values="0 0 0 0 0 0 0 0 0 0 0 0 0 0 0 0 0 0 0.15 0"/>
<feBlend mode="normal" in2="BackgroundImageFix" result="effect1_dropShadow_565_27662"/>
<feBlend mode="normal" in="SourceGraphic" in2="effect1_dropShadow_565_27662" result="shape"/>
<feColorMatrix in="SourceAlpha" type="matrix" values="0 0 0 0 0 0 0 0 0 0 0 0 0 0 0 0 0 0 127 0" result="hardAlpha"/>
<feOffset dy="2.66955"/>
<feGaussianBlur stdDeviation="1.33477"/>
<feComposite in2="hardAlpha" operator="arithmetic" k2="-1" k3="1"/>
<feColorMatrix type="matrix" values="0 0 0 0 1 0 0 0 0 1 0 0 0 0 1 0 0 0 0.65 0"/>
<feBlend mode="normal" in2="shape" result="effect2_innerShadow_565_27662"/>
<feColorMatrix in="SourceAlpha" type="matrix" values="0 0 0 0 0 0 0 0 0 0 0 0 0 0 0 0 0 0 127 0" result="hardAlpha"/>
<feOffset dy="-2.66955"/>
<feGaussianBlur stdDeviation="1.33477"/>
<feComposite in2="hardAlpha" operator="arithmetic" k2="-1" k3="1"/>
<feColorMatrix type="matrix" values="0 0 0 0 0 0 0 0 0 0 0 0 0 0 0 0 0 0 0.42 0"/>
<feBlend mode="normal" in2="effect2_innerShadow_565_27662" result="effect3_innerShadow_565_27662"/>
<feColorMatrix in="SourceAlpha" type="matrix" values="0 0 0 0 0 0 0 0 0 0 0 0 0 0 0 0 0 0 127 0" result="hardAlpha"/>
<feOffset dy="1.33477"/>
<feGaussianBlur stdDeviation="0.667387"/>
<feComposite in2="hardAlpha" operator="arithmetic" k2="-1" k3="1"/>
<feColorMatrix type="matrix" values="0 0 0 0 1 0 0 0 0 1 0 0 0 0 1 0 0 0 0.45 0"/>
<feBlend mode="normal" in2="effect3_innerShadow_565_27662" result="effect4_innerShadow_565_27662"/>
</filter>
</defs>
</svg>
