<svg width="31" height="36" viewBox="0 0 31 36" fill="none" xmlns="http://www.w3.org/2000/svg">
<g filter="url(#filter0_diii_90_1254)">
<path fill-rule="evenodd" clip-rule="evenodd" d="M9.24294 5.59732C8.98409 5.59732 8.73585 5.70015 8.55282 5.88318C8.3698 6.06621 8.26697 6.31445 8.26697 6.57329V18.0604C8.26697 20.2317 10.7213 21.4948 12.4882 20.2327L14.4918 18.8015C15.0008 18.4379 15.6846 18.4379 16.1936 18.8015L18.1973 20.2327C19.9641 21.4948 22.4184 20.2317 22.4184 18.0604V6.57329C22.4184 6.31445 22.3156 6.06621 22.1326 5.88318C21.9496 5.70015 21.7013 5.59732 21.4425 5.59732H9.24294ZM6.48249 3.81285C7.21461 3.08073 8.20757 2.66943 9.24294 2.66943H21.4425C22.4778 2.66943 23.4708 3.08073 24.2029 3.81285C24.935 4.54496 25.3463 5.53792 25.3463 6.57329V26.0926C25.3463 26.6409 25.0399 27.1433 24.5523 27.3943C24.0647 27.6452 23.4777 27.6026 23.0315 27.2838L16.8944 22.9002C15.9662 22.2372 14.7193 22.2372 13.7911 22.9002L7.65393 27.2838C7.2077 27.6026 6.62075 27.6452 6.13315 27.3943C5.64555 27.1433 5.33908 26.6409 5.33908 26.0926V6.57329C5.33908 5.53792 5.75038 4.54496 6.48249 3.81285Z" fill="#AEAEB7"/>
</g>
<defs>
<filter id="filter0_diii_90_1254" x="-1.4782e-05" y="-0.000114202" width="30.6855" height="35.5652" filterUnits="userSpaceOnUse" color-interpolation-filters="sRGB">
<feFlood flood-opacity="0" result="BackgroundImageFix"/>
<feColorMatrix in="SourceAlpha" type="matrix" values="0 0 0 0 0 0 0 0 0 0 0 0 0 0 0 0 0 0 127 0" result="hardAlpha"/>
<feOffset dy="2.66955"/>
<feGaussianBlur stdDeviation="2.66955"/>
<feColorMatrix type="matrix" values="0 0 0 0 0 0 0 0 0 0 0 0 0 0 0 0 0 0 0.15 0"/>
<feBlend mode="normal" in2="BackgroundImageFix" result="effect1_dropShadow_90_1254"/>
<feBlend mode="normal" in="SourceGraphic" in2="effect1_dropShadow_90_1254" result="shape"/>
<feColorMatrix in="SourceAlpha" type="matrix" values="0 0 0 0 0 0 0 0 0 0 0 0 0 0 0 0 0 0 127 0" result="hardAlpha"/>
<feOffset dy="2.66955"/>
<feGaussianBlur stdDeviation="1.33477"/>
<feComposite in2="hardAlpha" operator="arithmetic" k2="-1" k3="1"/>
<feColorMatrix type="matrix" values="0 0 0 0 1 0 0 0 0 1 0 0 0 0 1 0 0 0 0.65 0"/>
<feBlend mode="normal" in2="shape" result="effect2_innerShadow_90_1254"/>
<feColorMatrix in="SourceAlpha" type="matrix" values="0 0 0 0 0 0 0 0 0 0 0 0 0 0 0 0 0 0 127 0" result="hardAlpha"/>
<feOffset dy="-2.66955"/>
<feGaussianBlur stdDeviation="1.33477"/>
<feComposite in2="hardAlpha" operator="arithmetic" k2="-1" k3="1"/>
<feColorMatrix type="matrix" values="0 0 0 0 0 0 0 0 0 0 0 0 0 0 0 0 0 0 0.42 0"/>
<feBlend mode="normal" in2="effect2_innerShadow_90_1254" result="effect3_innerShadow_90_1254"/>
<feColorMatrix in="SourceAlpha" type="matrix" values="0 0 0 0 0 0 0 0 0 0 0 0 0 0 0 0 0 0 127 0" result="hardAlpha"/>
<feOffset dy="1.33477"/>
<feGaussianBlur stdDeviation="0.667387"/>
<feComposite in2="hardAlpha" operator="arithmetic" k2="-1" k3="1"/>
<feColorMatrix type="matrix" values="0 0 0 0 1 0 0 0 0 1 0 0 0 0 1 0 0 0 0.45 0"/>
<feBlend mode="normal" in2="effect3_innerShadow_90_1254" result="effect4_innerShadow_90_1254"/>
</filter>
</defs>
</svg>
