<svg width="45" height="45" viewBox="0 0 45 45" fill="none" xmlns="http://www.w3.org/2000/svg">
<g filter="url(#filter0_diii_90_974)">
<path fill-rule="evenodd" clip-rule="evenodd" d="M11.628 7.04177C11.3023 7.04177 10.99 7.17113 10.7598 7.40139C10.5295 7.63164 10.4002 7.94393 10.4002 8.26957V24.1436C10.4002 25.7066 12.2899 26.4894 13.3952 25.3842C13.7406 25.0388 14.209 24.8448 14.6974 24.8448H33.1143C33.4399 24.8448 33.7522 24.7154 33.9825 24.4851C34.2128 24.2549 34.3421 23.9426 34.3421 23.617V8.26957C34.3421 7.94394 34.2128 7.63164 33.9825 7.40139C33.7522 7.17113 33.4399 7.04177 33.1143 7.04177H11.628ZM8.15524 4.79685C9.07627 3.87582 10.3254 3.3584 11.628 3.3584H33.1143C34.4168 3.3584 35.666 3.87582 36.587 4.79685C37.5081 5.71787 38.0255 6.96704 38.0255 8.26957V23.617C38.0255 24.9195 37.5081 26.1687 36.587 27.0897C35.666 28.0107 34.4168 28.5281 33.1143 28.5281H16.8514C15.9607 28.5281 15.1065 28.882 14.4767 29.5118L9.86075 34.1277C9.33404 34.6544 8.54189 34.812 7.8537 34.5269C7.16551 34.2418 6.7168 33.5703 6.7168 32.8254V8.26957C6.7168 6.96704 7.23422 5.71787 8.15524 4.79685Z" fill="#AEAEB7"/>
</g>
<defs>
<filter id="filter0_diii_90_974" x="5.48363e-05" y="2.74181e-05" width="44.7422" height="44.7423" filterUnits="userSpaceOnUse" color-interpolation-filters="sRGB">
<feFlood flood-opacity="0" result="BackgroundImageFix"/>
<feColorMatrix in="SourceAlpha" type="matrix" values="0 0 0 0 0 0 0 0 0 0 0 0 0 0 0 0 0 0 127 0" result="hardAlpha"/>
<feOffset dy="3.35837"/>
<feGaussianBlur stdDeviation="3.35837"/>
<feColorMatrix type="matrix" values="0 0 0 0 0 0 0 0 0 0 0 0 0 0 0 0 0 0 0.15 0"/>
<feBlend mode="normal" in2="BackgroundImageFix" result="effect1_dropShadow_90_974"/>
<feBlend mode="normal" in="SourceGraphic" in2="effect1_dropShadow_90_974" result="shape"/>
<feColorMatrix in="SourceAlpha" type="matrix" values="0 0 0 0 0 0 0 0 0 0 0 0 0 0 0 0 0 0 127 0" result="hardAlpha"/>
<feOffset dy="3.35837"/>
<feGaussianBlur stdDeviation="1.67919"/>
<feComposite in2="hardAlpha" operator="arithmetic" k2="-1" k3="1"/>
<feColorMatrix type="matrix" values="0 0 0 0 1 0 0 0 0 1 0 0 0 0 1 0 0 0 0.65 0"/>
<feBlend mode="normal" in2="shape" result="effect2_innerShadow_90_974"/>
<feColorMatrix in="SourceAlpha" type="matrix" values="0 0 0 0 0 0 0 0 0 0 0 0 0 0 0 0 0 0 127 0" result="hardAlpha"/>
<feOffset dy="-3.35837"/>
<feGaussianBlur stdDeviation="1.67919"/>
<feComposite in2="hardAlpha" operator="arithmetic" k2="-1" k3="1"/>
<feColorMatrix type="matrix" values="0 0 0 0 0 0 0 0 0 0 0 0 0 0 0 0 0 0 0.42 0"/>
<feBlend mode="normal" in2="effect2_innerShadow_90_974" result="effect3_innerShadow_90_974"/>
<feColorMatrix in="SourceAlpha" type="matrix" values="0 0 0 0 0 0 0 0 0 0 0 0 0 0 0 0 0 0 127 0" result="hardAlpha"/>
<feOffset dy="1.67919"/>
<feGaussianBlur stdDeviation="0.839593"/>
<feComposite in2="hardAlpha" operator="arithmetic" k2="-1" k3="1"/>
<feColorMatrix type="matrix" values="0 0 0 0 1 0 0 0 0 1 0 0 0 0 1 0 0 0 0.45 0"/>
<feBlend mode="normal" in2="effect3_innerShadow_90_974" result="effect4_innerShadow_90_974"/>
</filter>
</defs>
</svg>
