<svg width="40" height="40" viewBox="0 0 40 40" fill="none" xmlns="http://www.w3.org/2000/svg">
<g filter="url(#filter0_diii_90_1219)">
<path d="M24.9095 2.93433C25.3362 2.93437 25.7454 3.10428 26.0471 3.40601L32.7513 10.1101C33.053 10.4118 33.2229 10.8211 33.2229 11.2478V25.9978C33.2229 27.1358 32.7708 28.2273 31.9661 29.032C31.1614 29.8367 30.0699 30.2888 28.9319 30.2888H10.1595C9.02144 30.2888 7.92997 29.8367 7.12527 29.032C6.32058 28.2273 5.86844 27.1358 5.86844 25.9978V7.22534C5.86844 6.08733 6.32058 4.99586 7.12527 4.19116C7.92997 3.38646 9.02144 2.93433 10.1595 2.93433H24.9095ZM10.1595 6.1521C9.87495 6.1521 9.60184 6.26538 9.40067 6.46655C9.19949 6.66773 9.08621 6.94084 9.08621 7.22534V25.9978C9.08621 26.2823 9.19949 26.5554 9.40067 26.7566C9.60184 26.9578 9.87496 27.071 10.1595 27.071H11.2317V17.9529C11.2317 17.0642 11.9524 16.3435 12.8411 16.3435H26.2503C27.1389 16.3436 27.8596 17.0643 27.8596 17.9529V27.071H28.9319C29.2164 27.071 29.4895 26.9578 29.6907 26.7566C29.8919 26.5554 30.0052 26.2823 30.0052 25.9978V13.1296C30.0051 12.3517 29.6957 11.6056 29.1458 11.0554L25.1018 7.01147C24.5517 6.4615 23.8056 6.15216 23.0276 6.1521H14.4505V6.70483C14.4506 8.32517 15.7637 9.63825 17.3841 9.63843H23.5686C24.4571 9.63859 25.1769 10.3593 25.177 11.2478C25.177 12.1364 24.4572 12.857 23.5686 12.8572H12.8411C11.9524 12.8572 11.2317 12.1365 11.2317 11.2478V6.1521H10.1595ZM17.3841 19.5613C15.7637 19.5615 14.4505 20.8754 14.4505 22.4958V27.071H24.6409V22.4958C24.6409 20.8755 23.3276 19.5615 21.7073 19.5613H17.3841Z" fill="#AEAEB7"/>
</g>
<defs>
<filter id="filter0_diii_90_1219" x="8.10623e-06" y="0.000110865" width="39.0914" height="39.0914" filterUnits="userSpaceOnUse" color-interpolation-filters="sRGB">
<feFlood flood-opacity="0" result="BackgroundImageFix"/>
<feColorMatrix in="SourceAlpha" type="matrix" values="0 0 0 0 0 0 0 0 0 0 0 0 0 0 0 0 0 0 127 0" result="hardAlpha"/>
<feOffset dy="2.93422"/>
<feGaussianBlur stdDeviation="2.93422"/>
<feColorMatrix type="matrix" values="0 0 0 0 0 0 0 0 0 0 0 0 0 0 0 0 0 0 0.15 0"/>
<feBlend mode="normal" in2="BackgroundImageFix" result="effect1_dropShadow_90_1219"/>
<feBlend mode="normal" in="SourceGraphic" in2="effect1_dropShadow_90_1219" result="shape"/>
<feColorMatrix in="SourceAlpha" type="matrix" values="0 0 0 0 0 0 0 0 0 0 0 0 0 0 0 0 0 0 127 0" result="hardAlpha"/>
<feOffset dy="2.93422"/>
<feGaussianBlur stdDeviation="1.46711"/>
<feComposite in2="hardAlpha" operator="arithmetic" k2="-1" k3="1"/>
<feColorMatrix type="matrix" values="0 0 0 0 1 0 0 0 0 1 0 0 0 0 1 0 0 0 0.65 0"/>
<feBlend mode="normal" in2="shape" result="effect2_innerShadow_90_1219"/>
<feColorMatrix in="SourceAlpha" type="matrix" values="0 0 0 0 0 0 0 0 0 0 0 0 0 0 0 0 0 0 127 0" result="hardAlpha"/>
<feOffset dy="-2.93422"/>
<feGaussianBlur stdDeviation="1.46711"/>
<feComposite in2="hardAlpha" operator="arithmetic" k2="-1" k3="1"/>
<feColorMatrix type="matrix" values="0 0 0 0 0 0 0 0 0 0 0 0 0 0 0 0 0 0 0.42 0"/>
<feBlend mode="normal" in2="effect2_innerShadow_90_1219" result="effect3_innerShadow_90_1219"/>
<feColorMatrix in="SourceAlpha" type="matrix" values="0 0 0 0 0 0 0 0 0 0 0 0 0 0 0 0 0 0 127 0" result="hardAlpha"/>
<feOffset dy="1.46711"/>
<feGaussianBlur stdDeviation="0.733554"/>
<feComposite in2="hardAlpha" operator="arithmetic" k2="-1" k3="1"/>
<feColorMatrix type="matrix" values="0 0 0 0 1 0 0 0 0 1 0 0 0 0 1 0 0 0 0.45 0"/>
<feBlend mode="normal" in2="effect3_innerShadow_90_1219" result="effect4_innerShadow_90_1219"/>
</filter>
</defs>
</svg>
