<svg width="45" height="43" viewBox="0 0 45 43" fill="none" xmlns="http://www.w3.org/2000/svg">
<g filter="url(#filter0_diii_90_984)">
<path d="M27.8134 3.3623C29.3984 3.44281 30.6591 4.75343 30.6591 6.3584V10.1631C30.6591 11.3755 31.642 12.3584 32.8544 12.3584C35.5398 12.3586 37.7167 14.4971 37.7167 17.1348V27.582C37.7167 30.2197 35.5398 32.3582 32.8544 32.3584H11.579C8.89362 32.3582 6.71674 30.2197 6.71674 27.582V17.1348C6.71674 14.4971 8.89362 12.3586 11.579 12.3584C12.9624 12.3584 14.0839 11.2369 14.0839 9.85352V6.3584C14.0839 4.75329 15.3445 3.44261 16.9296 3.3623L17.0839 3.3584H27.6591L27.8134 3.3623ZM11.579 15.9404C10.9078 15.9407 10.3642 16.4755 10.3642 17.1348V27.582C10.3642 28.2413 10.9078 28.7761 11.579 28.7764H32.8544C33.5256 28.7761 34.0693 28.2413 34.0693 27.582V17.1348C34.0693 16.4755 33.5256 15.9407 32.8544 15.9404H11.579ZM17.7675 9.604C17.7675 11.019 18.9146 12.166 20.3295 12.166H24.4135C25.8285 12.166 26.9755 11.019 26.9755 9.604C26.9755 8.18904 25.8285 7.04199 24.4135 7.04199H20.3295C18.9146 7.04199 17.7675 8.18904 17.7675 9.604Z" fill="#A9A9B0"/>
</g>
<defs>
<filter id="filter0_diii_90_984" x="-6.19888e-06" y="2.74181e-05" width="44.4335" height="42.4335" filterUnits="userSpaceOnUse" color-interpolation-filters="sRGB">
<feFlood flood-opacity="0" result="BackgroundImageFix"/>
<feColorMatrix in="SourceAlpha" type="matrix" values="0 0 0 0 0 0 0 0 0 0 0 0 0 0 0 0 0 0 127 0" result="hardAlpha"/>
<feOffset dy="3.35837"/>
<feGaussianBlur stdDeviation="3.35837"/>
<feColorMatrix type="matrix" values="0 0 0 0 0 0 0 0 0 0 0 0 0 0 0 0 0 0 0.15 0"/>
<feBlend mode="normal" in2="BackgroundImageFix" result="effect1_dropShadow_90_984"/>
<feBlend mode="normal" in="SourceGraphic" in2="effect1_dropShadow_90_984" result="shape"/>
<feColorMatrix in="SourceAlpha" type="matrix" values="0 0 0 0 0 0 0 0 0 0 0 0 0 0 0 0 0 0 127 0" result="hardAlpha"/>
<feOffset dy="3.35837"/>
<feGaussianBlur stdDeviation="1.67919"/>
<feComposite in2="hardAlpha" operator="arithmetic" k2="-1" k3="1"/>
<feColorMatrix type="matrix" values="0 0 0 0 1 0 0 0 0 1 0 0 0 0 1 0 0 0 0.65 0"/>
<feBlend mode="normal" in2="shape" result="effect2_innerShadow_90_984"/>
<feColorMatrix in="SourceAlpha" type="matrix" values="0 0 0 0 0 0 0 0 0 0 0 0 0 0 0 0 0 0 127 0" result="hardAlpha"/>
<feOffset dy="-3.35837"/>
<feGaussianBlur stdDeviation="1.67919"/>
<feComposite in2="hardAlpha" operator="arithmetic" k2="-1" k3="1"/>
<feColorMatrix type="matrix" values="0 0 0 0 0 0 0 0 0 0 0 0 0 0 0 0 0 0 0.42 0"/>
<feBlend mode="normal" in2="effect2_innerShadow_90_984" result="effect3_innerShadow_90_984"/>
<feColorMatrix in="SourceAlpha" type="matrix" values="0 0 0 0 0 0 0 0 0 0 0 0 0 0 0 0 0 0 127 0" result="hardAlpha"/>
<feOffset dy="1.67919"/>
<feGaussianBlur stdDeviation="0.839593"/>
<feComposite in2="hardAlpha" operator="arithmetic" k2="-1" k3="1"/>
<feColorMatrix type="matrix" values="0 0 0 0 1 0 0 0 0 1 0 0 0 0 1 0 0 0 0.45 0"/>
<feBlend mode="normal" in2="effect3_innerShadow_90_984" result="effect4_innerShadow_90_984"/>
</filter>
</defs>
</svg>
