<svg width="52" height="48" viewBox="0 0 52 48" fill="none" xmlns="http://www.w3.org/2000/svg">
<g filter="url(#filter0_diii_90_885)">
<path fill-rule="evenodd" clip-rule="evenodd" d="M12.4256 7.52492C12.0776 7.52492 11.7439 7.66315 11.4978 7.9092C11.2518 8.15525 11.1135 8.48897 11.1135 8.83694V31.7972C11.1135 32.1452 11.2518 32.4789 11.4978 32.725C11.7439 32.971 12.0776 33.1093 12.4256 33.1093H38.6659C39.0139 33.1093 39.3476 32.971 39.5936 32.725C39.8397 32.4789 39.9779 32.1452 39.9779 31.7972V13.757C39.9779 13.409 39.8397 13.0753 39.5936 12.8293C39.3476 12.5832 39.0139 12.445 38.6659 12.445H23.9057C23.2477 12.445 22.6332 12.1161 22.2682 11.5686L20.6378 9.12299C19.9722 8.1246 18.8517 7.52492 17.6518 7.52492H12.4256ZM8.71461 5.12599C9.69882 4.14179 11.0337 3.58887 12.4256 3.58887H20.6257C21.2837 3.58887 21.8982 3.91773 22.2632 4.46523L23.8936 6.91086C24.5592 7.90925 25.6797 8.50893 26.8796 8.50893H38.6659C40.0578 8.50893 41.3926 9.06185 42.3769 10.0461C43.3611 11.0303 43.914 12.3651 43.914 13.757V31.7972C43.914 33.1891 43.3611 34.524 42.3769 35.5082C41.3927 36.4924 40.0578 37.0453 38.6659 37.0453H12.4256C11.0337 37.0453 9.69882 36.4924 8.71461 35.5082C7.73041 34.524 7.17749 33.1891 7.17749 31.7972V8.83694C7.17749 7.44506 7.73041 6.11019 8.71461 5.12599Z" fill="#AEAEB7"/>
</g>
<defs>
<filter id="filter0_diii_90_885" x="-1.57356e-05" y="0.000114202" width="51.0915" height="47.8116" filterUnits="userSpaceOnUse" color-interpolation-filters="sRGB">
<feFlood flood-opacity="0" result="BackgroundImageFix"/>
<feColorMatrix in="SourceAlpha" type="matrix" values="0 0 0 0 0 0 0 0 0 0 0 0 0 0 0 0 0 0 127 0" result="hardAlpha"/>
<feOffset dy="3.58875"/>
<feGaussianBlur stdDeviation="3.58875"/>
<feColorMatrix type="matrix" values="0 0 0 0 0 0 0 0 0 0 0 0 0 0 0 0 0 0 0.15 0"/>
<feBlend mode="normal" in2="BackgroundImageFix" result="effect1_dropShadow_90_885"/>
<feBlend mode="normal" in="SourceGraphic" in2="effect1_dropShadow_90_885" result="shape"/>
<feColorMatrix in="SourceAlpha" type="matrix" values="0 0 0 0 0 0 0 0 0 0 0 0 0 0 0 0 0 0 127 0" result="hardAlpha"/>
<feOffset dy="3.58875"/>
<feGaussianBlur stdDeviation="1.79438"/>
<feComposite in2="hardAlpha" operator="arithmetic" k2="-1" k3="1"/>
<feColorMatrix type="matrix" values="0 0 0 0 1 0 0 0 0 1 0 0 0 0 1 0 0 0 0.65 0"/>
<feBlend mode="normal" in2="shape" result="effect2_innerShadow_90_885"/>
<feColorMatrix in="SourceAlpha" type="matrix" values="0 0 0 0 0 0 0 0 0 0 0 0 0 0 0 0 0 0 127 0" result="hardAlpha"/>
<feOffset dy="-3.58875"/>
<feGaussianBlur stdDeviation="1.79438"/>
<feComposite in2="hardAlpha" operator="arithmetic" k2="-1" k3="1"/>
<feColorMatrix type="matrix" values="0 0 0 0 0 0 0 0 0 0 0 0 0 0 0 0 0 0 0.42 0"/>
<feBlend mode="normal" in2="effect2_innerShadow_90_885" result="effect3_innerShadow_90_885"/>
<feColorMatrix in="SourceAlpha" type="matrix" values="0 0 0 0 0 0 0 0 0 0 0 0 0 0 0 0 0 0 127 0" result="hardAlpha"/>
<feOffset dy="1.79438"/>
<feGaussianBlur stdDeviation="0.897188"/>
<feComposite in2="hardAlpha" operator="arithmetic" k2="-1" k3="1"/>
<feColorMatrix type="matrix" values="0 0 0 0 1 0 0 0 0 1 0 0 0 0 1 0 0 0 0.45 0"/>
<feBlend mode="normal" in2="effect3_innerShadow_90_885" result="effect4_innerShadow_90_885"/>
</filter>
</defs>
</svg>
