<svg width="40" height="40" viewBox="0 0 40 40" fill="none" xmlns="http://www.w3.org/2000/svg">
<g filter="url(#filter0_diii_565_27658)">
<path d="M18.2043 2.93433C25.0174 2.93433 30.541 8.45728 30.5413 15.2703C30.5413 18.0967 29.5883 20.6998 27.9895 22.78L32.7512 27.5417C33.3796 28.1701 33.3796 29.1888 32.7512 29.8171C32.1228 30.4455 31.1042 30.4455 30.4758 29.8171L25.7141 25.0554C23.6339 26.6543 21.0308 27.6072 18.2043 27.6072C11.3914 27.607 5.86841 22.0833 5.86841 15.2703C5.86862 8.45741 11.3915 2.93454 18.2043 2.93433ZM18.2043 6.1521C13.1688 6.15231 9.08639 10.2348 9.08618 15.2703C9.08618 20.306 13.1687 24.3882 18.2043 24.3884C20.6604 24.3884 22.8881 23.4158 24.5276 21.8367C24.5633 21.7925 24.6018 21.7498 24.6428 21.7087C24.6839 21.6677 24.7266 21.6292 24.7708 21.5935C26.3499 19.954 27.3225 17.7263 27.3225 15.2703C27.3223 10.2346 23.24 6.1521 18.2043 6.1521Z" fill="#AEAEB7"/>
</g>
<defs>
<filter id="filter0_diii_565_27658" x="-2.24113e-05" y="0.000110865" width="39.091" height="39.0909" filterUnits="userSpaceOnUse" color-interpolation-filters="sRGB">
<feFlood flood-opacity="0" result="BackgroundImageFix"/>
<feColorMatrix in="SourceAlpha" type="matrix" values="0 0 0 0 0 0 0 0 0 0 0 0 0 0 0 0 0 0 127 0" result="hardAlpha"/>
<feOffset dy="2.93422"/>
<feGaussianBlur stdDeviation="2.93422"/>
<feColorMatrix type="matrix" values="0 0 0 0 0 0 0 0 0 0 0 0 0 0 0 0 0 0 0.15 0"/>
<feBlend mode="normal" in2="BackgroundImageFix" result="effect1_dropShadow_565_27658"/>
<feBlend mode="normal" in="SourceGraphic" in2="effect1_dropShadow_565_27658" result="shape"/>
<feColorMatrix in="SourceAlpha" type="matrix" values="0 0 0 0 0 0 0 0 0 0 0 0 0 0 0 0 0 0 127 0" result="hardAlpha"/>
<feOffset dy="2.93422"/>
<feGaussianBlur stdDeviation="1.46711"/>
<feComposite in2="hardAlpha" operator="arithmetic" k2="-1" k3="1"/>
<feColorMatrix type="matrix" values="0 0 0 0 1 0 0 0 0 1 0 0 0 0 1 0 0 0 0.65 0"/>
<feBlend mode="normal" in2="shape" result="effect2_innerShadow_565_27658"/>
<feColorMatrix in="SourceAlpha" type="matrix" values="0 0 0 0 0 0 0 0 0 0 0 0 0 0 0 0 0 0 127 0" result="hardAlpha"/>
<feOffset dy="-2.93422"/>
<feGaussianBlur stdDeviation="1.46711"/>
<feComposite in2="hardAlpha" operator="arithmetic" k2="-1" k3="1"/>
<feColorMatrix type="matrix" values="0 0 0 0 0 0 0 0 0 0 0 0 0 0 0 0 0 0 0.42 0"/>
<feBlend mode="normal" in2="effect2_innerShadow_565_27658" result="effect3_innerShadow_565_27658"/>
<feColorMatrix in="SourceAlpha" type="matrix" values="0 0 0 0 0 0 0 0 0 0 0 0 0 0 0 0 0 0 127 0" result="hardAlpha"/>
<feOffset dy="1.46711"/>
<feGaussianBlur stdDeviation="0.733554"/>
<feComposite in2="hardAlpha" operator="arithmetic" k2="-1" k3="1"/>
<feColorMatrix type="matrix" values="0 0 0 0 1 0 0 0 0 1 0 0 0 0 1 0 0 0 0.45 0"/>
<feBlend mode="normal" in2="effect3_innerShadow_565_27658" result="effect4_innerShadow_565_27658"/>
</filter>
</defs>
</svg>
