<svg width="44" height="44" viewBox="0 0 44 44" fill="none" xmlns="http://www.w3.org/2000/svg">
<g filter="url(#filter0_diii_90_1147)">
<path fill-rule="evenodd" clip-rule="evenodd" d="M22.6097 5.49782C24.2461 3.91735 26.4378 3.04282 28.7127 3.06258C30.9876 3.08235 33.1638 3.99484 34.7724 5.60351C36.3811 7.21219 37.2936 9.38833 37.3134 11.6633C37.3331 13.9382 36.4586 16.1299 34.8781 17.7662L34.8577 17.7871L30.6596 21.9851C29.7801 22.865 28.7215 23.5455 27.5558 23.9803C26.3901 24.4151 25.1446 24.5942 23.9036 24.5053C22.6626 24.4164 21.4553 24.0617 20.3635 23.4652C19.2716 22.8687 18.3209 22.0443 17.5756 21.048C17.0201 20.3054 17.1718 19.253 17.9145 18.6975C18.6572 18.1419 19.7096 18.2936 20.2651 19.0363C20.7218 19.6469 21.3046 20.1522 21.9738 20.5178C22.6429 20.8834 23.3829 21.1008 24.1435 21.1553C24.9041 21.2097 25.6675 21.1 26.382 20.8335C27.0964 20.567 27.7452 20.1499 28.2843 19.6106L28.2845 19.6104L32.4718 15.4232C33.4345 14.4213 33.967 13.0822 33.9549 11.6924C33.9428 10.2981 33.3835 8.96437 32.3976 7.9784C31.4116 6.99244 30.0778 6.43318 28.6835 6.42106C27.293 6.40898 25.9532 6.94205 24.9511 7.90578L22.5533 10.2896C21.8956 10.9435 20.8323 10.9404 20.1784 10.2827C19.5246 9.62499 19.5277 8.56172 20.1854 7.90783L22.5924 5.51482L22.6097 5.49782Z" fill="#AEAEB7"/>
</g>
<g filter="url(#filter1_diii_90_1147)">
<path fill-rule="evenodd" clip-rule="evenodd" d="M15.8824 13.3052C17.0481 12.8704 18.2936 12.6913 19.5346 12.7802C20.7756 12.8691 21.9829 13.2238 23.0748 13.8203C24.1666 14.4169 25.1174 15.2412 25.8626 16.2375C26.4181 16.9801 26.2664 18.0325 25.5237 18.5881C24.781 19.1436 23.7286 18.9919 23.1731 18.2492C22.7164 17.6386 22.1336 17.1333 21.4645 16.7677C20.7953 16.4021 20.0553 16.1847 19.2947 16.1302C18.5341 16.0758 17.7707 16.1855 17.0562 16.452C16.3418 16.7185 15.693 17.1356 15.1539 17.6749L10.9664 21.8623C10.0037 22.8642 9.47124 24.2033 9.48332 25.5931C9.49543 26.9874 10.0547 28.3212 11.0407 29.3071C12.0266 30.2931 13.3604 30.8523 14.7547 30.8645C16.1445 30.8765 17.4835 30.3441 18.4854 29.3814L20.8674 26.9993C21.5232 26.3435 22.5865 26.3435 23.2423 26.9993C23.8981 27.6552 23.8981 28.7184 23.2423 29.3742L20.8493 31.7672L20.8285 31.7877C19.1921 33.3682 17.0004 34.2427 14.7255 34.2229C12.4506 34.2032 10.2744 33.2907 8.66577 31.682C7.0571 30.0733 6.14461 27.8972 6.12484 25.6223C6.10507 23.3473 6.9796 21.1557 8.56008 19.5193L8.58053 19.4985L12.7786 15.3004C12.7785 15.3005 12.7786 15.3004 12.7786 15.3004C13.6581 14.4206 14.7168 13.74 15.8824 13.3052Z" fill="#AEAEB7"/>
</g>
<defs>
<filter id="filter0_diii_90_1147" x="11.1165" y="-2.38419e-07" width="32.3218" height="33.7141" filterUnits="userSpaceOnUse" color-interpolation-filters="sRGB">
<feFlood flood-opacity="0" result="BackgroundImageFix"/>
<feColorMatrix in="SourceAlpha" type="matrix" values="0 0 0 0 0 0 0 0 0 0 0 0 0 0 0 0 0 0 127 0" result="hardAlpha"/>
<feOffset dy="3.06226"/>
<feGaussianBlur stdDeviation="3.06226"/>
<feColorMatrix type="matrix" values="0 0 0 0 0 0 0 0 0 0 0 0 0 0 0 0 0 0 0.15 0"/>
<feBlend mode="normal" in2="BackgroundImageFix" result="effect1_dropShadow_90_1147"/>
<feBlend mode="normal" in="SourceGraphic" in2="effect1_dropShadow_90_1147" result="shape"/>
<feColorMatrix in="SourceAlpha" type="matrix" values="0 0 0 0 0 0 0 0 0 0 0 0 0 0 0 0 0 0 127 0" result="hardAlpha"/>
<feOffset dy="3.06226"/>
<feGaussianBlur stdDeviation="1.53113"/>
<feComposite in2="hardAlpha" operator="arithmetic" k2="-1" k3="1"/>
<feColorMatrix type="matrix" values="0 0 0 0 1 0 0 0 0 1 0 0 0 0 1 0 0 0 0.65 0"/>
<feBlend mode="normal" in2="shape" result="effect2_innerShadow_90_1147"/>
<feColorMatrix in="SourceAlpha" type="matrix" values="0 0 0 0 0 0 0 0 0 0 0 0 0 0 0 0 0 0 127 0" result="hardAlpha"/>
<feOffset dy="-3.06226"/>
<feGaussianBlur stdDeviation="1.53113"/>
<feComposite in2="hardAlpha" operator="arithmetic" k2="-1" k3="1"/>
<feColorMatrix type="matrix" values="0 0 0 0 0 0 0 0 0 0 0 0 0 0 0 0 0 0 0.42 0"/>
<feBlend mode="normal" in2="effect2_innerShadow_90_1147" result="effect3_innerShadow_90_1147"/>
<feColorMatrix in="SourceAlpha" type="matrix" values="0 0 0 0 0 0 0 0 0 0 0 0 0 0 0 0 0 0 127 0" result="hardAlpha"/>
<feOffset dy="1.53113"/>
<feGaussianBlur stdDeviation="0.765564"/>
<feComposite in2="hardAlpha" operator="arithmetic" k2="-1" k3="1"/>
<feColorMatrix type="matrix" values="0 0 0 0 1 0 0 0 0 1 0 0 0 0 1 0 0 0 0.45 0"/>
<feBlend mode="normal" in2="effect3_innerShadow_90_1147" result="effect4_innerShadow_90_1147"/>
</filter>
<filter id="filter1_diii_90_1147" x="-4.76837e-07" y="9.6958" width="32.3218" height="33.7144" filterUnits="userSpaceOnUse" color-interpolation-filters="sRGB">
<feFlood flood-opacity="0" result="BackgroundImageFix"/>
<feColorMatrix in="SourceAlpha" type="matrix" values="0 0 0 0 0 0 0 0 0 0 0 0 0 0 0 0 0 0 127 0" result="hardAlpha"/>
<feOffset dy="3.06226"/>
<feGaussianBlur stdDeviation="3.06226"/>
<feColorMatrix type="matrix" values="0 0 0 0 0 0 0 0 0 0 0 0 0 0 0 0 0 0 0.15 0"/>
<feBlend mode="normal" in2="BackgroundImageFix" result="effect1_dropShadow_90_1147"/>
<feBlend mode="normal" in="SourceGraphic" in2="effect1_dropShadow_90_1147" result="shape"/>
<feColorMatrix in="SourceAlpha" type="matrix" values="0 0 0 0 0 0 0 0 0 0 0 0 0 0 0 0 0 0 127 0" result="hardAlpha"/>
<feOffset dy="3.06226"/>
<feGaussianBlur stdDeviation="1.53113"/>
<feComposite in2="hardAlpha" operator="arithmetic" k2="-1" k3="1"/>
<feColorMatrix type="matrix" values="0 0 0 0 1 0 0 0 0 1 0 0 0 0 1 0 0 0 0.65 0"/>
<feBlend mode="normal" in2="shape" result="effect2_innerShadow_90_1147"/>
<feColorMatrix in="SourceAlpha" type="matrix" values="0 0 0 0 0 0 0 0 0 0 0 0 0 0 0 0 0 0 127 0" result="hardAlpha"/>
<feOffset dy="-3.06226"/>
<feGaussianBlur stdDeviation="1.53113"/>
<feComposite in2="hardAlpha" operator="arithmetic" k2="-1" k3="1"/>
<feColorMatrix type="matrix" values="0 0 0 0 0 0 0 0 0 0 0 0 0 0 0 0 0 0 0.42 0"/>
<feBlend mode="normal" in2="effect2_innerShadow_90_1147" result="effect3_innerShadow_90_1147"/>
<feColorMatrix in="SourceAlpha" type="matrix" values="0 0 0 0 0 0 0 0 0 0 0 0 0 0 0 0 0 0 127 0" result="hardAlpha"/>
<feOffset dy="1.53113"/>
<feGaussianBlur stdDeviation="0.765564"/>
<feComposite in2="hardAlpha" operator="arithmetic" k2="-1" k3="1"/>
<feColorMatrix type="matrix" values="0 0 0 0 1 0 0 0 0 1 0 0 0 0 1 0 0 0 0.45 0"/>
<feBlend mode="normal" in2="effect3_innerShadow_90_1147" result="effect4_innerShadow_90_1147"/>
</filter>
</defs>
</svg>
