<svg width="44" height="44" viewBox="0 0 44 44" fill="none" xmlns="http://www.w3.org/2000/svg">
<g filter="url(#filter0_diii_90_887)">
<path fill-rule="evenodd" clip-rule="evenodd" d="M37.0164 3.55758C37.473 4.01419 37.6277 4.69202 37.4144 5.30151L27.6087 33.3177C27.381 33.9683 26.7793 34.4139 26.0907 34.442C25.402 34.4701 24.766 34.075 24.486 33.4451L19.2549 21.675C19.1844 21.5164 19.0576 21.3896 18.899 21.3191L7.12889 16.088C6.49906 15.808 6.10393 15.172 6.13202 14.4834C6.16012 13.7947 6.60575 13.193 7.25629 12.9653L35.2725 3.1596C35.882 2.94628 36.5598 3.10096 37.0164 3.55758ZM14.0379 14.1536C13.4386 14.3634 13.4046 15.1981 13.9848 15.456L21.1016 18.619C21.4819 18.788 21.786 19.0921 21.955 19.4724L25.118 26.5892C25.3759 27.1694 26.2106 27.1354 26.4204 26.5361L32.6068 8.8605C32.8009 8.30607 32.2679 7.77311 31.7135 7.96717L14.0379 14.1536Z" fill="#AEAEB7"/>
</g>
<defs>
<filter id="filter0_diii_90_887" x="1.04904e-05" y="-0.000116825" width="43.6394" height="43.6394" filterUnits="userSpaceOnUse" color-interpolation-filters="sRGB">
<feFlood flood-opacity="0" result="BackgroundImageFix"/>
<feColorMatrix in="SourceAlpha" type="matrix" values="0 0 0 0 0 0 0 0 0 0 0 0 0 0 0 0 0 0 127 0" result="hardAlpha"/>
<feOffset dy="3.0653"/>
<feGaussianBlur stdDeviation="3.0653"/>
<feColorMatrix type="matrix" values="0 0 0 0 0 0 0 0 0 0 0 0 0 0 0 0 0 0 0.15 0"/>
<feBlend mode="normal" in2="BackgroundImageFix" result="effect1_dropShadow_90_887"/>
<feBlend mode="normal" in="SourceGraphic" in2="effect1_dropShadow_90_887" result="shape"/>
<feColorMatrix in="SourceAlpha" type="matrix" values="0 0 0 0 0 0 0 0 0 0 0 0 0 0 0 0 0 0 127 0" result="hardAlpha"/>
<feOffset dy="3.0653"/>
<feGaussianBlur stdDeviation="1.53265"/>
<feComposite in2="hardAlpha" operator="arithmetic" k2="-1" k3="1"/>
<feColorMatrix type="matrix" values="0 0 0 0 1 0 0 0 0 1 0 0 0 0 1 0 0 0 0.65 0"/>
<feBlend mode="normal" in2="shape" result="effect2_innerShadow_90_887"/>
<feColorMatrix in="SourceAlpha" type="matrix" values="0 0 0 0 0 0 0 0 0 0 0 0 0 0 0 0 0 0 127 0" result="hardAlpha"/>
<feOffset dy="-3.0653"/>
<feGaussianBlur stdDeviation="1.53265"/>
<feComposite in2="hardAlpha" operator="arithmetic" k2="-1" k3="1"/>
<feColorMatrix type="matrix" values="0 0 0 0 0 0 0 0 0 0 0 0 0 0 0 0 0 0 0.42 0"/>
<feBlend mode="normal" in2="effect2_innerShadow_90_887" result="effect3_innerShadow_90_887"/>
<feColorMatrix in="SourceAlpha" type="matrix" values="0 0 0 0 0 0 0 0 0 0 0 0 0 0 0 0 0 0 127 0" result="hardAlpha"/>
<feOffset dy="1.53265"/>
<feGaussianBlur stdDeviation="0.766326"/>
<feComposite in2="hardAlpha" operator="arithmetic" k2="-1" k3="1"/>
<feColorMatrix type="matrix" values="0 0 0 0 1 0 0 0 0 1 0 0 0 0 1 0 0 0 0.45 0"/>
<feBlend mode="normal" in2="effect3_innerShadow_90_887" result="effect4_innerShadow_90_887"/>
</filter>
</defs>
</svg>
