<svg width="34" height="34" viewBox="0 0 34 34" fill="none" xmlns="http://www.w3.org/2000/svg">
<g filter="url(#filter0_diii_90_871)">
<path d="M16.688 2.90356C17.5671 2.90372 18.2795 3.61627 18.2798 4.49536V12.1917H25.9761C26.8554 12.1917 27.5679 12.9051 27.5679 13.7844C27.5677 14.6636 26.8553 15.3761 25.9761 15.3762H18.2798V23.0725C18.2797 23.9517 17.5672 24.6642 16.688 24.6643C15.8087 24.6643 15.0953 23.9518 15.0952 23.0725V15.3762H7.39893C6.51985 15.376 5.80729 14.6635 5.80713 13.7844C5.80713 12.9052 6.51975 12.1919 7.39893 12.1917H15.0952V4.49536C15.0955 3.61618 15.8088 2.90356 16.688 2.90356Z" fill="#AEAEB7"/>
</g>
<defs>
<filter id="filter0_diii_90_871" x="1.57356e-05" y="7.86781e-06" width="33.375" height="33.375" filterUnits="userSpaceOnUse" color-interpolation-filters="sRGB">
<feFlood flood-opacity="0" result="BackgroundImageFix"/>
<feColorMatrix in="SourceAlpha" type="matrix" values="0 0 0 0 0 0 0 0 0 0 0 0 0 0 0 0 0 0 127 0" result="hardAlpha"/>
<feOffset dy="2.90356"/>
<feGaussianBlur stdDeviation="2.90356"/>
<feColorMatrix type="matrix" values="0 0 0 0 0 0 0 0 0 0 0 0 0 0 0 0 0 0 0.15 0"/>
<feBlend mode="normal" in2="BackgroundImageFix" result="effect1_dropShadow_90_871"/>
<feBlend mode="normal" in="SourceGraphic" in2="effect1_dropShadow_90_871" result="shape"/>
<feColorMatrix in="SourceAlpha" type="matrix" values="0 0 0 0 0 0 0 0 0 0 0 0 0 0 0 0 0 0 127 0" result="hardAlpha"/>
<feOffset dy="2.90356"/>
<feGaussianBlur stdDeviation="1.45178"/>
<feComposite in2="hardAlpha" operator="arithmetic" k2="-1" k3="1"/>
<feColorMatrix type="matrix" values="0 0 0 0 1 0 0 0 0 1 0 0 0 0 1 0 0 0 0.65 0"/>
<feBlend mode="normal" in2="shape" result="effect2_innerShadow_90_871"/>
<feColorMatrix in="SourceAlpha" type="matrix" values="0 0 0 0 0 0 0 0 0 0 0 0 0 0 0 0 0 0 127 0" result="hardAlpha"/>
<feOffset dy="-2.90356"/>
<feGaussianBlur stdDeviation="1.45178"/>
<feComposite in2="hardAlpha" operator="arithmetic" k2="-1" k3="1"/>
<feColorMatrix type="matrix" values="0 0 0 0 0 0 0 0 0 0 0 0 0 0 0 0 0 0 0.42 0"/>
<feBlend mode="normal" in2="effect2_innerShadow_90_871" result="effect3_innerShadow_90_871"/>
<feColorMatrix in="SourceAlpha" type="matrix" values="0 0 0 0 0 0 0 0 0 0 0 0 0 0 0 0 0 0 127 0" result="hardAlpha"/>
<feOffset dy="1.45178"/>
<feGaussianBlur stdDeviation="0.725889"/>
<feComposite in2="hardAlpha" operator="arithmetic" k2="-1" k3="1"/>
<feColorMatrix type="matrix" values="0 0 0 0 1 0 0 0 0 1 0 0 0 0 1 0 0 0 0.45 0"/>
<feBlend mode="normal" in2="effect3_innerShadow_90_871" result="effect4_innerShadow_90_871"/>
</filter>
</defs>
</svg>
